<svg width="38" height="40" viewBox="0 0 38 40" fill="none" xmlns="http://www.w3.org/2000/svg">
<path d="M4 20.1097C4 17.6562 4 16.4295 4.56853 15.3512C5.13705 14.2729 6.20476 13.4745 8.34016 11.8779L10.4116 10.329C14.2713 7.443 16.2012 6 18.5 6C20.7988 6 22.7287 7.443 26.5884 10.329L28.6598 11.8779C30.7952 13.4745 31.8629 14.2729 32.4315 15.3512C33 16.4295 33 17.6562 33 20.1097V27.772C33 31.1793 33 32.883 31.7866 33.9415C30.5732 35 28.6202 35 24.7143 35H12.2857C8.37979 35 6.42683 35 5.21341 33.9415C4 32.883 4 31.1793 4 27.772V20.1097Z" stroke="white" stroke-width="2"/>
<path d="M23.4878 33.7275V25.2729C23.4878 24.7207 23.0401 24.2729 22.4878 24.2729H14.4834C13.9311 24.2729 13.4834 24.7207 13.4834 25.2729V33.7275" stroke="white" stroke-width="2" stroke-linecap="round" stroke-linejoin="round"/>
</svg>
