<svg width="23" height="24" viewBox="0 0 23 24" fill="none" xmlns="http://www.w3.org/2000/svg">
<path d="M22.4119 11.7208C22.4116 11.578 22.3705 11.4383 22.2934 11.318C22.2164 11.1977 22.1066 11.102 21.977 11.042L6.06713 3.61737C5.92835 3.55491 5.77385 3.53616 5.62415 3.56359C5.47445 3.59103 5.33664 3.66336 5.22903 3.77097C5.12141 3.87859 5.04908 4.0164 5.02165 4.1661C4.99421 4.31579 5.01296 4.4703 5.07542 4.60908L7.81192 10.9836L14.5471 10.973L14.5471 12.4686L7.79071 12.4686L5.05951 18.8484C5.00013 18.9864 4.98355 19.139 5.01192 19.2866C5.04028 19.4341 5.11229 19.5696 5.21861 19.6758C5.32798 19.7807 5.46659 19.8501 5.61617 19.8747C5.76576 19.8993 5.91929 19.878 6.05653 19.8136L21.9664 12.389C22.0964 12.3313 22.2073 12.2379 22.2861 12.1196C22.365 12.0013 22.4086 11.863 22.4119 11.7208Z" fill="#251A51"/>
</svg>
