<svg width="38" height="32" viewBox="0 0 38 32" fill="none" xmlns="http://www.w3.org/2000/svg">
<path d="M19.4629 27.3335V27.2964L19.4335 27.2739C17.6487 25.9084 16.5826 23.835 16.5296 21.6289C16.5302 17.1036 21.2776 13.4085 27.1213 13.4085C32.9653 13.4085 37.7129 17.1041 37.7129 21.6298C37.7129 26.1555 32.9653 29.8511 27.1213 29.8511C25.8588 29.8511 24.5856 29.6757 23.3762 29.3354L23.3392 29.325L23.3092 29.3489C21.4203 30.8541 19.0892 31.7633 16.6488 31.9147C19.0164 29.5682 19.4629 27.9724 19.4629 27.3335ZM18.5129 21.6298C18.5129 23.3759 19.4843 24.952 21.0424 26.0887C22.6005 27.2255 24.7497 27.927 27.1213 27.927C29.4928 27.927 31.642 27.2255 33.2001 26.0887C34.7582 24.952 35.7296 23.3759 35.7296 21.6298C35.7296 19.8837 34.7582 18.3076 33.2001 17.1709C31.642 16.0341 29.4928 15.3326 27.1213 15.3326C24.7497 15.3326 22.6005 16.0341 21.0424 17.1709C19.4843 18.3076 18.5129 19.8837 18.5129 21.6298ZM30.3963 20.6678H32.3796V22.5918H30.3963V20.6678ZM26.1296 20.6678H28.1129V22.5918H26.1296V20.6678ZM21.8629 20.6678H23.8463V22.5918H21.8629V20.6678Z" fill="white" stroke="#138CD4" stroke-width="0.15"/>
<path d="M26.9963 10.6667C26.9963 11.375 26.9054 12.0612 26.7445 12.7255C26.0256 12.3749 25.2529 12.1124 24.4455 11.9773C24.535 11.5533 24.5796 11.1098 24.5796 10.6667C24.5796 8.41183 23.3599 6.37777 21.4063 4.91169C19.4527 3.44562 16.7591 2.54167 13.7879 2.54167C10.8168 2.54167 8.12319 3.44562 6.16956 4.91169C4.21591 6.37777 2.99626 8.41183 2.99626 10.6667C2.99626 12.9215 4.21591 14.9556 6.16956 16.4216C8.12319 17.8877 10.8168 18.7917 13.7879 18.7917V18.7918L13.7936 18.7915L15.1045 18.7314L14.9967 19.9893L14.9958 19.9999L14.9967 20.0105L15.0925 21.1478L13.785 21.2083C12.2112 21.2081 10.6371 20.9831 9.11573 20.5465L9.05272 20.5284L9.00202 20.57C6.66571 22.485 3.7874 23.6477 0.772071 23.8564C3.6895 20.8654 4.24626 18.8262 4.24626 18V17.9393L4.19856 17.9018C1.97492 16.1518 0.645811 13.494 0.57959 10.6652C0.580578 4.86634 6.49654 0.125 13.7879 0.125C21.0799 0.125 26.9963 4.86713 26.9963 10.6667Z" fill="white" stroke="#138CD4" stroke-width="0.25"/>
<path d="M20.4544 12.0002V9.3335H17.7878V12.0002H20.4544ZM15.1211 12.0002V9.3335H12.4544V12.0002H15.1211ZM9.78776 12.0002V9.3335H7.12109V12.0002H9.78776Z" fill="white"/>
</svg>
